<?xml version="1.0" standalone="no"?>
<!DOCTYPE svg PUBLIC "-//W3C//DTD SVG 20010904//EN"
 "http://www.w3.org/TR/2001/REC-SVG-20010904/DTD/svg10.dtd">
<svg version="1.0" xmlns="http://www.w3.org/2000/svg"
 width="2446.000000pt" height="2218.000000pt" viewBox="0 0 2446.000000 2218.000000"
 preserveAspectRatio="xMidYMid meet">

<g transform="translate(0.000000,2218.000000) scale(0.100000,-0.100000)"
fill="#000000" stroke="none">
<path d="M11880 21004 c-79 -41 -148 -78 -153 -83 -16 -16 12 -49 50 -62 77
-24 111 -47 122 -81 5 -18 13 -137 17 -264 8 -265 14 -250 -88 -232 -35 6
-112 11 -173 11 -88 1 -120 -3 -161 -20 -118 -47 -234 -155 -291 -270 -34 -69
-38 -85 -41 -175 -3 -55 1 -127 8 -161 28 -143 114 -264 233 -328 52 -28 75
-34 145 -37 94 -5 144 9 294 84 48 24 92 44 96 44 5 0 23 -32 40 -71 32 -71
32 -71 64 -65 50 10 256 113 267 134 7 14 6 25 -6 42 -14 20 -21 22 -72 16
-68 -8 -98 9 -105 57 -4 28 -32 1025 -39 1390 -2 132 -7 148 -47 146 -8 -1
-80 -34 -160 -75z m-131 -851 c59 -19 135 -67 155 -97 11 -18 16 -73 22 -243
4 -121 4 -231 1 -245 -5 -19 -26 -35 -79 -63 -97 -52 -181 -59 -260 -23 -98
45 -171 127 -210 236 -15 43 -20 81 -20 157 0 141 31 218 107 265 67 41 184
47 284 13z"/>
<path d="M12773 20819 c-45 -29 -73 -78 -73 -128 0 -33 7 -49 34 -79 31 -33
39 -37 85 -37 42 0 55 5 81 30 60 57 76 124 45 184 -26 51 -115 67 -172 30z"/>
<path d="M9240 20512 c-68 -34 -104 -120 -77 -185 20 -47 58 -70 113 -70 84 0
138 67 131 162 -3 46 -9 59 -36 83 -37 33 -79 36 -131 10z"/>
<path d="M12765 20245 c-33 -18 -98 -46 -145 -61 -47 -15 -91 -31 -97 -37 -23
-18 -14 -47 19 -65 56 -29 106 -85 114 -126 11 -60 -22 -469 -41 -509 -11 -24
-30 -40 -68 -58 -52 -24 -70 -50 -48 -72 7 -7 69 -12 166 -14 85 -1 189 -7
231 -13 87 -12 107 -4 102 39 -2 20 -14 29 -63 48 -89 34 -99 49 -103 141 -2
42 8 218 22 390 31 370 30 337 10 356 -22 22 -31 20 -99 -19z"/>
<path d="M8063 20221 c-39 -11 -170 -61 -290 -111 -120 -50 -261 -104 -313
-119 -83 -24 -95 -30 -98 -51 -6 -37 19 -48 100 -43 85 5 124 -13 150 -68 28
-59 425 -1103 432 -1135 9 -42 -3 -70 -58 -131 -50 -55 -53 -64 -32 -82 12
-10 32 -4 98 27 46 22 182 75 303 117 121 42 256 96 300 118 306 159 401 398
263 660 -56 105 -151 168 -285 187 -40 5 -78 8 -85 6 -7 -3 -46 -7 -86 -10
l-72 -6 65 64 c45 44 75 84 96 130 28 60 31 74 27 144 -6 133 -70 237 -176
289 -50 24 -70 28 -162 30 -79 2 -123 -2 -177 -16z m136 -125 c69 -36 141
-150 161 -256 30 -158 -57 -254 -325 -358 l-51 -20 -97 257 c-54 141 -97 263
-97 272 0 23 28 45 95 74 122 54 245 66 314 31z m303 -636 c129 -37 240 -192
255 -355 15 -159 -92 -277 -311 -344 -109 -34 -173 -24 -201 28 -31 60 -217
562 -212 574 6 16 175 85 252 103 63 14 155 12 217 -6z"/>
<path d="M13254 20202 c-29 -20 -22 -42 27 -84 43 -36 52 -50 70 -112 85 -290
146 -466 244 -699 57 -136 73 -156 99 -123 6 8 54 67 107 132 125 155 301 389
363 484 74 113 100 137 162 150 57 12 77 35 41 49 -12 5 -73 18 -136 30 -63
12 -140 30 -170 41 -40 13 -59 15 -68 8 -21 -17 -15 -33 28 -67 52 -42 63 -71
45 -115 -20 -48 -135 -222 -234 -355 -76 -103 -86 -113 -97 -97 -16 21 -116
319 -144 430 -38 146 -30 170 63 182 49 7 80 32 74 60 -3 15 -26 21 -148 36
-124 15 -268 41 -305 54 -5 2 -15 0 -21 -4z"/>
<path d="M10366 20164 c-224 -44 -404 -223 -436 -431 -14 -89 4 -211 44 -296
101 -213 357 -298 628 -206 131 44 237 133 299 254 59 114 73 220 44 343 -63
266 -285 395 -579 336z m169 -135 c24 -11 67 -45 95 -75 155 -164 172 -459 32
-574 -79 -65 -213 -82 -309 -41 -170 74 -281 372 -204 547 65 146 240 211 386
143z"/>
<path d="M9340 19917 c-42 -39 -98 -88 -125 -107 -78 -55 -72 -88 20 -105 103
-18 120 -48 195 -343 60 -234 59 -246 -6 -307 -34 -31 -42 -45 -38 -62 3 -12
12 -24 19 -27 8 -3 64 12 127 34 62 21 160 48 218 61 118 26 130 32 130 65 0
31 -27 44 -90 44 -63 0 -105 21 -126 63 -10 17 -56 188 -105 380 -48 191 -92
354 -99 362 -22 26 -44 16 -120 -58z"/>
<path d="M14835 19846 c-167 -53 -282 -171 -340 -350 -24 -74 -27 -96 -23
-183 3 -89 7 -107 37 -168 88 -177 256 -262 501 -252 171 7 290 50 290 106 0
29 -20 31 -122 14 -217 -35 -394 22 -458 148 -23 44 -43 159 -34 194 l6 25
337 0 c359 0 383 3 389 49 2 13 -4 30 -16 41 -11 11 -21 38 -25 68 -16 135
-140 270 -282 307 -71 18 -204 19 -260 1z m191 -101 c49 -14 99 -56 123 -102
6 -12 11 -44 11 -71 0 -38 -5 -53 -24 -71 -27 -25 -49 -27 -280 -23 l-148 2 6
28 c11 45 61 145 89 178 33 39 101 74 143 74 17 0 53 -7 80 -15z"/>
<path d="M15905 19529 c-16 -5 -75 -13 -130 -17 -121 -9 -126 -16 -61 -97 37
-44 46 -63 46 -93 -1 -45 -165 -450 -201 -495 -21 -25 -33 -31 -82 -35 -61 -5
-80 -18 -75 -53 2 -17 21 -27 108 -55 58 -19 165 -64 239 -99 73 -36 137 -65
141 -65 4 0 12 12 19 26 11 25 9 29 -35 68 -100 86 -114 103 -114 134 0 34
149 399 186 455 15 22 41 45 62 54 48 20 86 8 186 -57 110 -72 147 -67 196 29
41 82 20 128 -71 155 -68 20 -94 20 -208 -4 -52 -11 -98 -20 -104 -20 -6 0 -7
16 -2 43 4 23 8 62 9 87 l1 45 -40 2 c-22 1 -53 -3 -70 -8z"/>
<path d="M16682 19095 c-83 -43 -141 -137 -142 -230 0 -69 38 -145 145 -285
87 -114 124 -178 125 -213 0 -55 -58 -117 -109 -117 -38 0 -131 42 -180 81
-64 49 -98 109 -114 194 -21 120 -56 113 -120 -24 -48 -103 -47 -107 64 -195
104 -82 234 -149 321 -165 184 -35 336 84 337 264 1 68 -29 128 -125 253 -157
206 -170 232 -140 290 35 67 87 78 176 36 94 -44 130 -93 155 -212 15 -69 25
-82 65 -82 24 0 27 7 53 111 28 108 28 111 10 131 -33 37 -138 107 -218 145
-68 32 -91 38 -164 41 -77 3 -91 1 -139 -23z"/>
<path d="M17998 19068 c-41 -11 -94 -63 -104 -103 -9 -38 4 -75 41 -112 40
-40 86 -44 151 -12 81 39 109 128 58 188 -21 25 -82 54 -104 50 -3 -1 -22 -6
-42 -11z"/>
<path d="M6428 18741 c-129 -51 -236 -174 -274 -316 -19 -68 -17 -190 2 -256
43 -147 158 -296 268 -348 180 -86 358 -52 522 102 102 95 194 248 194 322 0
12 -9 30 -19 39 -18 17 -20 16 -43 -16 -14 -18 -37 -55 -53 -83 -16 -27 -60
-82 -99 -121 -80 -80 -151 -114 -235 -114 -57 0 -144 40 -210 98 l-44 38 203
228 c111 126 210 243 221 260 35 57 21 106 -31 106 -14 0 -42 11 -60 25 -19
14 -57 32 -84 40 -70 21 -199 19 -258 -4z m142 -146 c39 -20 70 -62 70 -94 0
-15 -10 -41 -22 -58 -32 -45 -232 -271 -240 -272 -15 -2 -87 161 -93 212 -11
87 34 165 120 210 38 20 127 21 165 2z"/>
<path d="M17492 18599 c-30 -11 -28 -39 8 -96 36 -57 39 -106 9 -165 -45 -88
-232 -370 -256 -385 -18 -12 -44 -16 -88 -15 -57 2 -62 1 -73 -22 -13 -30 -6
-36 98 -96 41 -24 123 -76 182 -116 59 -41 113 -74 121 -74 39 0 49 56 16 86
-12 10 -32 38 -46 62 -42 70 -46 61 270 545 165 253 164 256 -13 257 -47 0
-112 7 -146 14 -35 7 -70 9 -82 5z"/>
<path d="M18425 18323 c-57 -21 -90 -26 -179 -28 -98 -2 -111 -4 -123 -22 -12
-18 -10 -26 17 -71 31 -49 31 -50 15 -83 -10 -18 -85 -123 -168 -233 -83 -111
-164 -223 -179 -251 -60 -109 -47 -198 41 -285 93 -92 263 -159 326 -129 16 8
30 19 32 26 2 6 -32 30 -76 53 -85 44 -165 119 -177 165 -10 40 28 104 207
341 117 155 167 214 182 214 11 0 65 -34 120 -75 103 -78 126 -86 176 -61 63
33 61 38 -66 134 -65 49 -124 96 -131 105 -12 14 -6 27 42 96 58 82 64 99 44
119 -15 15 -20 15 -103 -15z"/>
<path d="M11675 18239 c-225 -9 -499 -32 -720 -60 -2178 -275 -4154 -1369
-5556 -3075 -1455 -1770 -2135 -4059 -1888 -6359 253 -2369 1484 -4521 3402
-5951 1187 -886 2561 -1441 4028 -1628 406 -52 559 -61 1084 -61 575 0 860 19
1320 90 2225 344 4206 1536 5567 3350 580 773 1048 1696 1329 2625 178 588
291 1184 345 1835 23 263 26 1012 6 1265 -134 1709 -700 3224 -1708 4565 -398
530 -926 1076 -1451 1502 -1620 1315 -3657 1988 -5758 1902z m216 -2291 c34
-18 99 -86 110 -115 22 -59 -2 -217 -41 -268 -5 -5 -16 -39 -25 -75 -9 -35
-21 -73 -27 -84 -7 -13 -7 -21 2 -26 7 -4 52 34 118 102 132 136 264 242 317
257 54 15 129 14 168 -3 18 -7 52 -34 74 -60 34 -38 43 -58 48 -99 13 -105
-22 -169 -149 -272 -27 -22 -113 -104 -190 -182 -114 -114 -154 -148 -206
-173 -64 -30 -67 -31 -205 -29 l-140 2 -60 -59 c-78 -76 -111 -101 -155 -115
-19 -6 -40 -15 -46 -20 -5 -5 -46 -17 -90 -28 -114 -27 -249 -68 -291 -89 -35
-16 -39 -23 -76 -137 -21 -66 -43 -129 -47 -140 -5 -11 -19 -54 -31 -95 -12
-41 -41 -135 -65 -209 -24 -74 -44 -145 -44 -158 0 -13 -9 -42 -21 -65 -17
-34 -89 -221 -89 -232 0 -2 21 -11 48 -21 26 -10 56 -24 67 -31 11 -7 57 -22
102 -33 76 -20 88 -20 166 -8 50 8 99 23 121 36 21 13 60 25 93 28 37 4 87 20
140 44 45 22 85 39 88 39 3 0 11 4 18 10 44 36 76 59 105 75 17 11 32 22 32
26 0 4 14 12 30 19 17 7 30 16 30 20 0 12 200 231 264 289 55 50 126 127 176
190 28 36 92 109 143 164 50 55 99 107 107 116 19 21 137 118 156 129 11 6 11
15 -1 56 -21 67 -20 260 0 321 9 25 30 67 48 93 41 61 145 164 194 191 78 43
161 81 258 116 55 21 136 57 181 81 74 40 87 44 152 44 53 0 79 -5 104 -20 37
-22 83 -76 98 -115 14 -38 12 -120 -4 -158 -18 -41 -86 -111 -144 -148 l-46
-29 68 0 c38 0 114 7 170 16 142 23 201 15 259 -36 56 -50 77 -94 77 -163 0
-71 -8 -92 -61 -149 -74 -79 -199 -118 -378 -118 -70 0 -179 -16 -196 -30 -5
-4 -32 -15 -60 -26 -71 -26 -241 -112 -255 -130 -7 -7 -17 -14 -22 -14 -13 0
-92 -55 -127 -88 -15 -15 -42 -38 -58 -52 -34 -28 -36 -24 50 -112 100 -103
246 -148 412 -128 162 20 232 23 270 10 51 -17 133 -102 141 -146 10 -53 0
-158 -16 -178 -96 -113 -112 -121 -280 -137 -80 -7 -185 -13 -235 -13 -91 1
-232 20 -250 34 -5 4 -26 11 -45 15 -98 21 -205 89 -313 198 -42 42 -78 77
-81 77 -3 0 -33 -28 -68 -63 -35 -35 -79 -77 -98 -93 -34 -30 -87 -85 -183
-194 -111 -126 -158 -171 -223 -214 -38 -25 -91 -62 -119 -82 -27 -19 -86 -53
-130 -75 -43 -21 -82 -42 -86 -47 -9 -9 18 -92 38 -113 15 -18 131 -42 203
-42 89 0 290 45 290 65 0 4 6 8 13 8 7 0 26 13 42 30 86 89 246 94 320 9 49
-57 55 -73 55 -146 0 -55 -5 -81 -21 -110 -27 -49 -152 -169 -201 -194 -86
-44 -197 -80 -273 -88 -44 -5 -101 -15 -127 -21 -95 -24 -404 12 -513 59 -51
23 -195 160 -195 186 0 7 -4 15 -10 17 -8 3 -39 76 -74 176 l-11 32 -137 0
c-87 0 -161 6 -205 15 -76 18 -196 61 -231 83 -12 8 -24 13 -26 11 -17 -23
-116 -313 -116 -342 0 -12 -7 -51 -15 -87 -22 -97 -42 -214 -54 -315 -7 -49
-16 -124 -22 -167 -16 -111 -17 -612 -1 -665 7 -23 17 -99 22 -169 13 -169 21
-224 32 -224 4 0 25 11 46 24 100 65 253 116 517 172 39 8 99 22 135 30 36 9
157 22 270 29 113 7 221 18 240 23 92 26 140 44 152 55 15 15 91 62 171 106
31 18 63 39 70 46 8 7 52 36 99 64 l85 52 5 77 c5 78 18 118 92 277 45 95 76
138 155 215 106 103 191 180 199 180 4 0 32 23 61 50 30 28 58 50 61 50 3 0
15 8 26 18 47 42 105 83 138 97 40 17 124 19 176 5 40 -11 123 -91 139 -133
15 -39 14 -121 -3 -160 -18 -45 -91 -115 -147 -142 -50 -24 -169 -113 -169
-126 0 -4 -6 -9 -14 -11 -7 -2 -50 -37 -95 -78 -65 -58 -89 -89 -113 -138 -16
-35 -28 -66 -26 -68 10 -10 210 -25 258 -19 119 13 138 17 220 36 47 11 119
27 160 35 80 15 139 32 155 44 6 4 44 15 85 25 106 24 243 66 254 76 6 5 18 9
29 9 29 0 219 66 293 103 75 36 109 58 204 130 62 47 62 47 142 47 99 0 143
-22 189 -96 27 -44 27 -164 -1 -209 -45 -73 -211 -210 -315 -261 -33 -16 -62
-31 -65 -34 -8 -9 -117 -49 -205 -76 -44 -13 -89 -28 -100 -34 -11 -5 -49 -17
-85 -26 -36 -8 -69 -19 -75 -24 -5 -4 -37 -13 -70 -20 -33 -6 -116 -29 -186
-51 -69 -22 -168 -48 -220 -59 -51 -10 -123 -26 -159 -34 -106 -25 -357 -38
-492 -26 -65 6 -135 8 -155 4 -37 -6 -133 -44 -163 -64 -8 -6 -26 -15 -40 -21
-13 -5 -56 -34 -95 -63 -38 -29 -95 -66 -125 -82 -58 -31 -146 -85 -168 -105
-60 -52 -336 -109 -529 -109 -45 0 -128 -10 -185 -21 -57 -12 -123 -25 -148
-29 -100 -18 -328 -84 -380 -111 -76 -38 -154 -116 -166 -165 -3 -11 15 -81
39 -155 54 -162 55 -165 73 -309 33 -269 38 -354 26 -456 -28 -246 -107 -582
-168 -720 -12 -28 -26 -68 -29 -88 -4 -20 -10 -36 -14 -36 -4 0 -13 -21 -20
-47 -23 -80 -79 -209 -147 -338 -35 -68 -64 -128 -64 -135 0 -6 -33 -70 -73
-143 -89 -161 -90 -163 -72 -181 8 -7 23 -31 34 -52 67 -127 173 -204 281
-204 55 0 160 15 190 27 8 3 51 16 95 28 44 12 132 37 195 54 63 18 140 39
170 48 30 8 73 23 95 32 53 24 177 74 245 101 80 31 201 87 240 111 8 5 51 25
95 44 82 36 196 94 205 104 3 3 41 24 85 46 43 22 95 50 113 63 19 12 66 39
106 60 39 20 73 39 76 42 3 3 32 18 65 35 33 16 78 43 100 60 22 18 48 35 58
38 9 4 17 11 17 16 0 5 13 14 29 19 26 9 219 127 231 141 3 3 39 24 80 45 l75
39 -4 152 c-5 219 11 365 46 440 16 33 37 71 48 85 32 39 197 203 233 230 19
14 41 32 51 40 30 26 102 64 221 119 47 21 92 47 102 57 19 22 88 124 88 130
0 3 8 16 17 30 17 26 83 182 83 197 0 4 33 76 73 160 41 84 80 167 87 186 18
46 108 137 153 156 46 19 118 19 164 0 20 -9 53 -34 74 -58 30 -33 40 -53 45
-94 11 -89 -9 -148 -132 -398 -24 -49 -44 -95 -44 -102 0 -6 -11 -34 -25 -61
-14 -28 -25 -55 -25 -61 0 -22 -115 -218 -170 -291 -99 -130 -228 -235 -339
-277 -111 -41 -230 -121 -272 -182 -24 -34 -37 -101 -38 -198 -1 -55 9 -65 38
-39 18 15 103 48 201 77 36 10 90 27 120 38 30 10 103 29 161 41 89 19 126 22
220 17 102 -5 266 -23 387 -43 23 -4 42 -3 42 2 0 20 149 269 189 315 24 28
85 85 135 126 50 41 112 97 138 123 49 50 182 160 193 160 4 0 20 9 36 21 36
25 210 82 299 97 36 6 103 14 149 17 93 6 104 12 131 64 10 20 38 59 62 87 23
28 52 64 63 80 39 54 61 79 135 154 100 99 221 207 279 247 25 18 51 37 58 43
24 20 118 72 157 87 23 8 50 18 61 23 125 50 256 72 460 75 99 1 243 6 320 10
182 9 365 -7 458 -42 37 -14 73 -30 80 -37 29 -28 160 -60 211 -51 17 3 86 9
153 15 105 8 132 13 187 39 53 26 76 31 136 31 79 0 98 -7 144 -54 42 -42 56
-77 56 -142 0 -74 -20 -117 -82 -176 -103 -97 -211 -133 -453 -150 -221 -15
-383 -7 -482 26 -46 15 -83 31 -83 35 0 26 -203 64 -325 61 -44 0 -109 -5
-145 -10 -36 -5 -117 -10 -180 -10 -63 0 -155 -7 -205 -15 -90 -14 -206 -55
-235 -82 -8 -7 -35 -27 -60 -43 -25 -16 -66 -48 -91 -72 -25 -24 -68 -63 -96
-89 -27 -25 -55 -54 -61 -66 -6 -11 -38 -54 -72 -94 l-60 -74 81 -7 c45 -4
105 -12 133 -19 103 -24 161 -41 175 -52 18 -15 81 -37 108 -37 12 0 48 11 79
25 81 36 168 35 215 -2 86 -68 109 -121 95 -218 -10 -65 -113 -175 -206 -219
-64 -31 -67 -31 -226 -31 -101 0 -166 4 -175 11 -8 6 -50 25 -94 42 -84 32
-163 47 -308 57 -246 17 -349 43 -413 102 l-28 26 -105 -27 c-64 -16 -117 -36
-137 -51 -18 -14 -35 -25 -38 -25 -2 0 -38 -34 -79 -75 -40 -41 -77 -75 -82
-75 -8 0 -61 -47 -119 -106 -17 -16 -40 -48 -51 -70 -11 -21 -23 -41 -27 -44
-7 -6 -48 -97 -48 -109 0 -4 38 -26 85 -50 95 -48 87 -49 157 22 45 46 183
127 253 150 117 37 344 76 445 76 103 0 402 -61 455 -93 11 -7 42 -20 69 -30
27 -10 74 -34 105 -52 31 -18 69 -41 86 -50 88 -50 235 -152 290 -202 34 -31
102 -84 150 -117 48 -33 94 -67 103 -76 10 -8 29 -22 43 -31 14 -9 46 -34 71
-55 60 -51 117 -96 137 -107 9 -5 20 -14 26 -18 49 -42 130 -92 228 -142 l116
-59 88 2 c48 1 142 9 208 18 139 19 178 14 231 -28 60 -47 84 -94 84 -161 0
-130 -113 -235 -279 -260 -100 -14 -375 -19 -467 -8 -77 10 -167 45 -214 85
-8 7 -26 16 -39 20 -21 6 -78 39 -134 77 -11 7 -44 33 -75 57 -32 24 -69 51
-84 61 -15 9 -49 35 -75 58 -26 22 -73 59 -103 81 -30 22 -62 46 -70 53 -8 8
-42 32 -75 53 -76 51 -88 61 -144 113 -46 44 -177 134 -241 167 -19 10 -37 21
-40 25 -8 13 -194 100 -212 100 -9 0 -19 4 -22 9 -3 4 -34 14 -68 20 -35 7
-91 19 -126 28 -66 16 -85 14 -289 -29 -61 -13 -187 -78 -191 -99 -2 -11 40
-77 86 -134 5 -6 17 -24 28 -40 10 -17 21 -32 25 -35 3 -3 38 -70 77 -150 55
-112 87 -164 143 -229 l72 -84 63 6 c35 4 73 11 83 17 27 14 185 30 304 30 81
0 113 -5 175 -26 67 -23 189 -78 259 -118 71 -40 172 -135 199 -188 9 -18 20
-35 23 -38 3 -3 15 -23 26 -45 19 -39 51 -90 80 -130 8 -11 36 -31 62 -44 55
-28 118 -84 139 -123 20 -39 18 -131 -5 -176 -19 -37 -75 -95 -121 -126 -37
-24 -173 -22 -228 4 -22 11 -45 20 -51 20 -5 0 -46 35 -90 78 -77 74 -161 183
-161 210 0 6 -4 12 -8 12 -5 0 -19 23 -32 51 -27 56 -49 75 -147 124 -89 44
-175 68 -213 60 l-30 -7 32 -41 c18 -23 75 -87 126 -142 50 -54 92 -105 92
-111 0 -7 5 -14 11 -16 15 -5 23 -86 15 -142 -6 -36 -18 -58 -57 -100 -27 -29
-64 -61 -83 -70 -37 -17 -140 -22 -178 -7 -49 19 -309 299 -376 405 -14 23
-37 59 -51 81 -14 22 -52 70 -86 106 -82 89 -175 197 -202 232 l-22 30 -11
-29 c-40 -102 -44 -287 -11 -449 20 -100 34 -133 109 -262 23 -39 58 -111 77
-160 20 -48 40 -97 45 -108 5 -11 20 -64 35 -118 33 -130 35 -272 4 -336 -37
-77 -106 -134 -178 -146 -72 -12 -123 1 -166 43 -59 57 -75 89 -75 154 0 68
-24 177 -51 234 -10 22 -19 44 -19 47 0 9 -59 127 -94 187 -14 25 -36 65 -48
90 -13 25 -26 47 -29 50 -3 3 -16 57 -28 120 -12 63 -27 121 -34 129 -9 10
-12 76 -12 225 0 210 3 256 16 256 4 0 10 24 13 54 12 94 31 142 93 241 7 11
19 34 27 50 7 17 30 55 50 84 41 60 40 70 -8 122 -12 13 -26 32 -32 41 -8 14
-81 99 -150 173 -12 13 -24 28 -25 33 -2 5 -42 28 -89 52 -47 24 -92 49 -100
55 -8 7 -40 20 -70 30 -30 10 -60 21 -65 26 -12 9 -164 63 -240 85 -27 8 -110
22 -184 30 l-133 15 -107 -27 c-58 -15 -122 -34 -141 -42 -19 -8 -60 -21 -90
-29 -30 -8 -64 -20 -75 -27 -11 -7 -40 -20 -65 -30 -25 -10 -77 -37 -116 -61
-39 -25 -109 -58 -155 -74 -110 -39 -299 -130 -334 -160 -11 -10 -49 -36 -85
-57 -36 -21 -67 -41 -70 -44 -3 -3 -22 -13 -42 -22 -21 -10 -45 -25 -55 -33
-48 -43 -105 -81 -181 -118 -110 -55 -158 -81 -212 -116 -25 -16 -83 -49 -130
-72 -47 -24 -91 -49 -98 -56 -16 -16 -150 -80 -186 -89 -14 -3 -26 -10 -26
-14 0 -5 -10 -12 -22 -16 -25 -7 -113 -48 -138 -64 -8 -5 -42 -21 -75 -35 -33
-14 -71 -32 -85 -39 -14 -8 -53 -22 -87 -31 -35 -10 -68 -24 -74 -31 -6 -8
-15 -14 -20 -14 -5 0 -28 -8 -52 -19 -56 -25 -219 -76 -287 -90 -30 -7 -80
-20 -110 -31 -64 -22 -159 -51 -180 -55 -8 -2 -35 -8 -60 -14 -177 -40 -444
-54 -499 -25 -14 8 -32 14 -38 14 -16 0 -113 53 -173 93 -25 17 -73 59 -108
94 l-62 64 -35 -75 c-19 -42 -35 -80 -35 -85 0 -5 -6 -16 -13 -23 -7 -7 -29
-42 -47 -78 -19 -36 -57 -99 -85 -140 -72 -106 -87 -132 -193 -340 -52 -102
-102 -196 -111 -210 -10 -14 -21 -32 -25 -40 -3 -8 -20 -35 -36 -60 -16 -25
-39 -63 -51 -85 -12 -22 -24 -42 -28 -45 -3 -3 -15 -21 -25 -40 -11 -19 -24
-39 -28 -45 -41 -50 -130 -211 -303 -549 -48 -94 -99 -188 -113 -211 -56 -85
-51 -75 -104 -195 -11 -25 -31 -68 -44 -97 -13 -28 -24 -57 -24 -63 0 -5 -4
-18 -9 -28 -14 -25 -60 -165 -66 -203 -3 -17 -10 -39 -15 -49 -13 -25 -70
-198 -70 -213 0 -8 -9 -40 -19 -73 -27 -81 -32 -112 -38 -237 -6 -112 2 -164
38 -244 22 -50 25 -148 7 -190 -18 -40 -75 -99 -113 -117 -56 -27 -131 -21
-187 15 -26 17 -56 44 -65 60 -10 16 -20 29 -24 29 -4 0 -15 21 -25 48 -10 26
-21 52 -25 57 -4 6 -15 48 -25 95 -14 70 -16 117 -11 275 4 107 13 218 21 255
27 120 46 195 65 250 11 30 33 102 51 160 35 116 48 155 61 185 4 11 13 39 19
62 6 24 22 65 35 92 14 27 25 53 25 57 0 5 14 36 30 69 17 33 30 65 30 72 0 7
5 13 10 13 6 0 10 6 10 13 0 7 21 46 47 87 26 41 72 125 103 185 215 416 229
441 324 590 89 138 91 141 117 193 13 23 26 42 30 42 3 0 12 14 19 31 7 17 18
36 24 43 6 6 20 29 31 51 11 22 22 42 25 45 4 3 25 46 49 95 23 50 46 97 52
105 5 8 20 38 34 65 29 58 30 59 109 180 79 121 103 163 196 350 92 182 115
224 159 290 17 26 40 63 51 83 11 20 25 44 30 52 5 8 20 38 33 65 26 55 100
192 129 240 10 17 18 35 18 42 0 13 72 162 106 218 13 22 33 65 44 95 12 30
27 69 34 85 8 17 20 48 27 70 7 22 17 44 21 49 4 6 8 19 8 30 0 12 13 48 28
81 16 33 36 94 46 135 23 100 25 106 42 170 9 30 19 78 24 105 5 28 16 93 26
145 14 82 15 111 5 210 -20 200 -41 320 -66 375 -7 17 -22 57 -31 90 -14 45
-31 73 -69 113 -55 58 -86 76 -158 92 -40 9 -55 7 -95 -9 -26 -11 -72 -27
-102 -35 -84 -24 -168 -84 -216 -156 -36 -53 -56 -96 -114 -245 -90 -230 -188
-367 -358 -505 -64 -52 -168 -106 -247 -130 -38 -11 -84 -25 -101 -30 -45 -15
-205 -12 -266 4 -86 23 -101 31 -144 80 -43 49 -54 79 -54 152 0 55 10 80 52
127 64 71 80 77 204 77 115 0 145 6 229 46 69 33 125 86 178 169 63 99 65 109
25 128 -18 8 -63 29 -100 46 -65 31 -68 32 -170 25 -127 -8 -157 0 -220 62
-54 52 -62 80 -56 180 4 63 5 66 60 121 69 69 119 85 272 91 131 4 199 -11
331 -74 50 -24 97 -44 105 -46 8 -1 52 35 98 80 76 76 95 102 74 102 -13 0
-96 82 -117 115 -24 38 -27 167 -5 211 38 75 128 134 203 134 44 0 65 -7 137
-50 47 -27 105 -69 130 -93 25 -23 68 -62 96 -85 l50 -42 92 0 92 0 -6 33 c-3
17 -9 50 -14 72 -5 22 -11 85 -14 140 -3 55 -10 116 -15 135 -5 19 -12 60 -16
91 -5 47 -12 63 -45 97 -22 22 -48 60 -60 84 -25 54 -148 182 -210 218 -25 14
-75 34 -113 44 -37 10 -70 22 -73 27 -9 15 -39 10 -131 -20 -109 -35 -156 -58
-213 -107 -90 -77 -267 -260 -291 -301 -31 -54 -122 -212 -137 -238 -19 -33
-40 -87 -57 -145 -9 -30 -21 -64 -25 -75 -23 -54 -41 -95 -64 -148 -14 -32
-26 -61 -26 -64 0 -4 -31 -56 -69 -117 -38 -61 -81 -142 -97 -181 -54 -137
-119 -224 -319 -431 -73 -75 -332 -235 -452 -280 -26 -9 -53 -21 -59 -25 -36
-27 -267 -58 -488 -65 -105 -3 -110 -4 -145 -34 -111 -95 -209 -92 -307 12
-70 73 -74 84 -74 177 l0 84 73 72 c47 46 96 82 133 100 57 27 65 28 294 35
231 8 284 13 305 29 5 5 21 12 35 16 32 9 193 85 200 94 3 4 24 15 48 25 23
11 42 22 42 26 0 4 13 13 29 20 45 18 99 73 203 205 13 17 33 53 45 80 57 131
68 152 140 264 24 37 29 52 20 58 -7 4 -86 7 -176 5 -183 -4 -225 -14 -316
-76 -27 -18 -90 -57 -140 -86 -49 -29 -103 -63 -120 -76 -45 -36 -46 -37 -101
-66 -43 -24 -64 -28 -128 -28 -42 0 -76 3 -76 8 0 4 -12 13 -27 19 -39 17
-110 112 -118 156 -4 21 -4 58 0 83 5 38 16 55 58 97 29 29 61 58 72 64 11 7
38 25 60 39 22 15 87 56 145 90 58 35 110 67 115 71 80 64 209 121 295 132
148 19 448 22 545 6 49 -8 90 -13 92 -12 11 11 53 81 71 117 23 47 30 59 75
127 15 23 27 44 27 48 0 12 66 91 138 165 l73 74 -23 19 c-13 10 -43 27 -68
38 -79 34 -124 62 -160 98 -19 20 -63 60 -98 90 l-63 54 -82 -23 c-45 -12
-102 -29 -127 -38 -32 -12 -78 -16 -160 -16 -131 1 -167 13 -232 81 -45 47
-58 79 -58 148 0 74 13 102 70 156 52 50 79 59 170 59 31 0 59 3 63 6 3 4 -16
49 -43 101 -45 84 -50 101 -50 158 0 35 4 74 9 88 10 26 78 94 114 114 31 17
150 16 193 -2 56 -23 116 -92 163 -185 48 -97 78 -147 103 -174 10 -11 18 -23
18 -26 0 -4 28 -24 63 -46 34 -21 73 -49 87 -63 72 -72 170 -149 210 -165 25
-9 61 -27 80 -39 19 -13 74 -42 121 -66 85 -44 87 -44 120 -29 19 9 52 21 74
28 22 7 45 16 51 21 23 18 161 39 260 39 96 0 230 -22 244 -40 3 -3 25 -12 50
-19 63 -18 170 -70 200 -98 l25 -23 2 22 c2 13 7 52 13 88 5 36 12 89 16 118
l6 52 -62 0 c-53 0 -75 6 -144 41 -142 71 -201 145 -241 304 -31 120 -32 212
-5 372 10 65 20 144 21 176 3 62 15 84 79 148 47 46 80 59 150 59 70 0 102
-13 151 -60 57 -56 69 -87 69 -187 0 -49 -4 -103 -10 -122 -37 -130 -30 -264
15 -281 32 -12 62 -2 68 23 6 27 54 164 67 192 5 11 19 49 30 84 12 35 29 82
40 105 15 34 28 68 35 96 1 3 4 12 8 20 3 8 11 34 17 57 6 23 17 49 25 57 22
22 18 33 -14 39 -25 5 -77 27 -186 77 -22 10 -56 24 -75 30 -161 58 -284 174
-404 384 -120 208 -138 390 -78 821 21 150 15 225 -23 307 -29 61 -34 168 -11
221 19 45 96 122 136 135 46 16 145 15 179 -2 32 -17 94 -83 114 -123 47 -90
69 -188 74 -323 5 -129 2 -164 -32 -380 -17 -112 -19 -227 -4 -290 19 -85 118
-256 166 -287 14 -9 66 -33 116 -53 51 -21 113 -47 139 -59 54 -24 88 -27 88
-7 0 17 94 310 126 394 13 34 24 69 24 78 0 9 -28 44 -62 78 -49 49 -71 82
-110 166 -27 58 -54 113 -59 123 -12 22 -10 238 2 275 45 136 69 216 69 232 0
16 23 64 76 160 11 19 28 56 37 81 22 57 100 142 151 163 83 34 169 16 233
-50 52 -54 67 -105 59 -199 -6 -69 -22 -109 -86 -220 -16 -27 -29 -57 -29 -65
-1 -8 -15 -59 -32 -113 -31 -99 -32 -125 -4 -161 12 -16 18 -17 27 -8 7 7 35
12 63 12 48 0 135 19 180 40 17 8 86 27 214 60 19 5 40 15 47 22 8 7 27 67 44
133 16 66 34 127 38 135 5 8 19 53 31 100 13 47 27 93 32 102 5 10 9 24 9 32
0 8 17 48 38 89 40 76 107 153 158 181 35 19 152 21 185 4z"/>
<path d="M5528 18096 c-54 -21 -87 -44 -146 -100 -63 -60 -107 -131 -153 -243
-18 -46 -38 -83 -44 -83 -6 0 -32 18 -59 40 -26 22 -54 40 -61 40 -21 0 -41
-33 -70 -115 -15 -44 -41 -106 -57 -139 -27 -53 -28 -60 -14 -74 14 -14 21
-14 69 1 76 24 107 22 144 -10 46 -41 300 -358 323 -403 24 -47 25 -71 4 -111
-18 -36 -15 -68 8 -83 14 -9 38 10 145 115 70 69 154 145 186 168 58 44 66 58
45 79 -18 18 -42 15 -94 -13 -53 -28 -109 -32 -141 -10 -12 9 -91 100 -175
203 -143 174 -153 189 -152 227 1 58 53 151 116 211 73 69 111 88 178 88 58 0
96 -15 150 -60 29 -25 253 -294 293 -354 23 -33 21 -81 -4 -125 -23 -39 -20
-65 10 -65 10 0 59 34 107 76 49 42 133 110 187 152 74 58 97 81 97 99 0 36
-24 38 -89 9 -78 -35 -128 -34 -168 2 -17 15 -91 101 -165 192 -149 182 -204
238 -269 271 -54 27 -150 34 -201 15z"/>
<path d="M18831 17762 c-6 -12 -2 -34 16 -76 28 -68 32 -41 -49 -346 -139
-526 -159 -595 -180 -613 -37 -31 -401 -137 -474 -137 -20 0 -53 15 -94 43
-116 78 -117 78 -144 71 -51 -13 -44 -90 17 -180 45 -67 79 -89 135 -89 115 1
858 249 1327 443 l180 74 71 -6 c64 -6 72 -4 90 15 19 21 19 22 -6 38 -55 36
-140 113 -200 180 -64 73 -79 81 -99 57 -9 -10 -6 -26 9 -68 34 -87 26 -97
-143 -178 -204 -98 -407 -176 -407 -156 0 2 18 66 40 143 59 210 128 414 147
435 19 22 63 23 106 4 49 -22 61 -24 80 -14 31 16 18 36 -60 95 -43 32 -130
109 -194 171 -117 113 -148 131 -168 94z"/>
<path d="M4135 17645 c-47 -26 -64 -45 -76 -88 -14 -54 -4 -101 32 -142 35
-39 75 -51 124 -35 54 18 85 62 85 121 0 109 -87 185 -165 144z"/>
<path d="M4502 17228 c-5 -7 -19 -51 -31 -97 -11 -46 -32 -108 -46 -138 -48
-107 -28 -143 61 -112 110 39 137 24 350 -192 170 -173 179 -188 145 -263 -22
-47 -20 -70 6 -80 21 -9 33 0 106 84 36 41 108 115 161 164 100 91 113 115 74
140 -18 11 -23 10 -125 -35 -51 -22 -53 -22 -91 -5 -25 11 -133 112 -303 282
-145 145 -271 264 -280 264 -9 0 -21 -6 -27 -12z"/>
<path d="M4060 16751 c-48 -50 -69 -113 -77 -228 -3 -50 -9 -97 -14 -104 -6
-10 -23 -3 -68 25 -41 25 -70 36 -89 34 -27 -3 -27 -5 -39 -103 -6 -55 -19
-120 -27 -144 -32 -89 -17 -103 76 -72 34 12 71 21 82 21 33 0 77 -32 266
-190 190 -160 210 -186 191 -241 -19 -56 -14 -88 14 -95 14 -4 27 -5 29 -3 2
2 34 45 72 96 38 50 111 136 162 191 50 55 92 107 92 114 0 19 -20 38 -40 38
-8 0 -47 -20 -85 -45 -108 -69 -113 -68 -280 71 -227 188 -255 220 -255 288 0
44 38 89 127 153 69 49 83 76 60 119 -17 33 -71 86 -104 103 -36 18 -54 13
-93 -28z"/>
<path d="M20883 16289 c-109 -42 -197 -156 -229 -297 l-16 -70 -91 48 c-129
68 -221 94 -332 94 -143 1 -268 -53 -359 -155 -66 -73 -90 -142 -90 -259 0
-114 27 -199 101 -323 112 -187 278 -299 500 -338 35 -6 62 -14 61 -18 -78
-146 -93 -188 -93 -251 0 -52 6 -77 29 -125 68 -137 278 -276 315 -207 12 23
5 32 -41 60 -49 30 -106 95 -114 129 -3 16 -8 34 -10 41 -9 29 19 114 79 234
l62 127 55 6 c120 13 311 49 429 81 67 19 136 34 152 34 21 0 45 -14 84 -50
30 -27 62 -50 70 -50 35 0 25 34 -43 138 -38 59 -86 137 -107 174 -20 38 -41
71 -47 74 -21 13 -32 -18 -30 -81 4 -79 -8 -101 -62 -126 -74 -32 -438 -110
-452 -96 -2 2 5 30 17 63 41 120 68 254 74 377 3 67 8 132 11 145 l4 22 48
-24 c165 -83 331 -69 450 38 90 82 108 224 44 359 -44 95 -145 196 -225 225
-75 28 -172 29 -244 1z m276 -124 c42 -21 100 -93 112 -139 16 -59 -3 -111
-60 -167 -71 -69 -149 -103 -236 -103 -89 0 -165 30 -165 66 0 42 30 148 54
196 63 122 206 193 295 147z m-698 -281 c30 -9 80 -30 113 -46 l58 -29 -7
-147 c-8 -164 -45 -335 -108 -498 l-35 -89 -53 3 c-197 10 -365 116 -447 280
-35 73 -37 81 -37 176 0 86 4 108 23 149 43 86 146 172 245 202 59 19 183 18
248 -1z"/>
<path d="M3339 15801 c-87 -55 -157 -195 -179 -360 -19 -142 1 -211 66 -227
33 -8 52 2 82 46 31 46 29 99 -8 177 -38 79 -38 104 0 146 66 75 143 76 251 2
40 -27 72 -57 75 -69 3 -13 -10 -63 -32 -122 -54 -145 -74 -228 -74 -319 0
-132 46 -199 157 -231 161 -47 287 75 330 319 18 106 26 117 90 117 40 0 88
56 102 118 17 79 14 177 -5 196 -28 29 -49 19 -75 -35 -27 -59 -58 -84 -90
-74 -12 4 -121 74 -242 156 -120 83 -237 159 -258 169 -59 30 -134 27 -190 -9z
m513 -424 c48 -33 90 -67 93 -76 8 -25 -18 -112 -49 -165 -48 -82 -111 -104
-185 -67 -89 46 -102 141 -41 304 12 32 28 64 36 72 19 18 26 15 146 -68z"/>
<path d="M2067 15058 c-31 -90 -62 -177 -68 -195 -11 -27 -11 -37 3 -65 9 -18
207 -256 441 -528 239 -279 420 -497 413 -501 -6 -3 -308 0 -671 7 -394 7
-666 9 -676 3 -10 -5 -25 -30 -35 -56 -32 -90 -74 -181 -114 -252 -22 -39 -40
-79 -40 -90 0 -27 36 -37 63 -17 110 79 123 86 161 86 30 0 149 -54 545 -246
278 -135 525 -257 548 -270 64 -37 77 -69 68 -170 l-7 -83 27 -7 c14 -4 30 -3
35 2 5 5 29 56 53 114 25 58 72 163 106 234 34 71 61 135 61 142 0 18 -37 36
-59 29 -9 -3 -38 -30 -64 -59 -53 -61 -98 -82 -158 -72 -35 6 -912 429 -945
457 -11 9 -12 15 -4 23 17 17 940 21 1165 5 99 -7 203 -13 230 -13 47 -1 50 0
53 27 3 23 -17 48 -135 170 -213 220 -813 923 -813 953 0 8 6 14 13 14 14 0
958 -390 1018 -421 47 -24 55 -48 40 -132 -16 -94 -15 -106 15 -113 34 -9 44
4 84 106 18 47 68 159 111 249 44 90 79 172 79 182 0 18 -27 39 -50 39 -7 0
-37 -27 -67 -60 -51 -54 -60 -60 -97 -60 -59 0 -1172 455 -1194 488 -11 18
-15 48 -14 119 2 103 -5 123 -43 123 -20 0 -28 -17 -78 -162z"/>
<path d="M22368 14128 c-11 -9 -17 -36 -21 -85 -5 -83 -13 -96 -76 -127 -75
-38 -1150 -438 -1190 -443 -32 -4 -41 -1 -62 25 -13 16 -32 44 -41 61 -21 39
-61 41 -66 3 -2 -12 28 -100 66 -195 86 -210 215 -558 271 -729 23 -69 48
-131 55 -137 9 -8 31 -5 77 8 36 10 109 26 162 36 87 16 98 20 103 41 9 36
-10 51 -75 57 -163 14 -251 113 -345 385 -52 151 -45 231 23 266 16 9 136 56
267 105 132 49 246 92 255 96 14 5 23 -10 48 -76 51 -133 83 -254 75 -284 -5
-19 -26 -40 -70 -68 -66 -42 -75 -59 -50 -93 14 -19 15 -19 63 0 144 55 237
86 310 102 46 10 85 24 87 31 3 6 1 24 -3 40 l-8 28 -76 -3 c-69 -3 -79 -1
-99 20 -28 28 -151 311 -146 335 2 13 71 43 248 110 135 51 253 92 262 93 10
0 21 -8 26 -17 18 -34 121 -328 139 -394 23 -88 10 -132 -58 -204 -52 -55 -65
-100 -33 -112 10 -3 60 8 113 25 53 17 112 33 131 37 56 10 70 16 70 27 0 5
-32 85 -70 176 -102 239 -256 655 -281 758 -23 92 -33 114 -53 114 -7 0 -19
-6 -28 -12z"/>
<path d="M22225 12471 c-3 -6 -13 -33 -21 -61 -13 -44 -25 -59 -91 -113 -261
-211 -633 -563 -633 -598 0 -9 8 -19 18 -22 308 -91 574 -163 703 -192 202
-44 215 -49 244 -94 29 -47 47 -62 64 -52 11 7 11 20 -3 72 -9 35 -23 118 -32
184 -21 149 -19 145 -42 145 -13 0 -24 -11 -31 -30 -6 -16 -16 -43 -22 -59
-17 -47 -46 -56 -141 -42 -84 11 -327 65 -430 96 -40 11 -55 20 -52 30 11 27
341 309 414 354 53 32 75 27 110 -21 45 -64 49 -68 76 -68 36 0 38 19 11 107
-26 81 -74 286 -79 338 -2 24 -8 31 -30 33 -14 2 -29 -2 -33 -7z"/>
<path d="M21990 11034 c-208 -58 -332 -248 -317 -489 11 -168 68 -298 175
-397 138 -127 298 -164 482 -112 201 57 310 215 310 449 0 49 -7 119 -15 154
-37 156 -149 297 -290 367 -75 37 -84 39 -184 41 -71 2 -124 -2 -161 -13z
m368 -224 c144 -62 209 -240 139 -383 -66 -133 -231 -213 -422 -205 -76 3 -98
8 -144 33 -97 53 -141 133 -141 254 0 119 67 216 186 273 130 61 280 72 382
28z"/>
<path d="M23265 9810 c-3 -6 -18 -33 -33 -62 -19 -36 -39 -57 -67 -72 -40 -21
-47 -21 -655 -18 -389 2 -627 7 -648 14 -27 8 -38 20 -57 65 -22 49 -27 54
-52 51 l-28 -3 0 -264 c-1 -218 2 -264 14 -269 26 -10 46 15 62 79 8 35 22 73
29 85 32 51 0 49 835 49 429 0 786 4 793 8 19 12 15 24 -34 109 -25 44 -57
110 -71 146 -13 37 -29 73 -35 80 -13 15 -44 16 -53 2z"/>
<path d="M22521 9051 c-26 -50 -70 -87 -116 -95 -19 -4 -124 3 -233 15 -220
24 -301 21 -369 -12 -57 -28 -97 -88 -117 -180 -24 -101 -20 -172 14 -290 16
-57 30 -113 30 -124 0 -12 -24 -42 -62 -76 l-62 -56 32 -99 c17 -54 37 -108
45 -118 15 -20 45 -17 51 6 21 73 41 110 66 123 25 13 55 11 281 -15 140 -16
300 -36 356 -44 112 -17 130 -15 139 18 6 24 -49 284 -66 317 -6 11 -21 19
-35 19 -20 0 -30 -11 -55 -60 -43 -85 -58 -88 -287 -62 -201 22 -256 39 -294
93 -22 30 -24 44 -24 134 0 87 3 107 25 150 33 65 87 95 175 95 62 0 287 -25
502 -56 132 -19 153 -15 153 30 0 31 -77 295 -91 312 -19 24 -38 16 -58 -25z"/>
<path d="M21589 7707 c-87 -46 -135 -168 -127 -327 5 -96 26 -151 64 -169 31
-14 32 -12 37 109 7 168 56 230 171 215 59 -8 545 -113 558 -121 14 -9 9 -64
-14 -166 -17 -78 -19 -103 -10 -123 12 -26 70 -67 86 -62 5 2 24 67 41 145 18
78 35 145 38 148 4 4 47 -1 97 -10 50 -9 96 -14 101 -10 6 3 14 17 20 31 8 21
2 33 -52 95 -55 63 -129 193 -129 224 0 14 -23 24 -53 24 -15 -1 -31 -15 -49
-45 -24 -39 -32 -45 -61 -45 -18 0 -145 25 -282 55 -290 64 -365 69 -436 32z"/>
<path d="M21352 7038 c-5 -7 -19 -57 -31 -112 -12 -54 -39 -152 -60 -218 -22
-66 -37 -126 -34 -134 3 -8 17 -17 31 -21 21 -5 30 -1 47 23 11 16 37 46 58
68 36 37 39 38 90 34 28 -3 199 -51 379 -107 181 -56 340 -101 355 -99 26 3
28 6 27 43 -1 22 -8 72 -17 110 -9 39 -17 95 -17 125 0 101 -46 129 -99 61
-41 -52 -91 -75 -145 -67 -22 4 -133 34 -244 68 -236 72 -255 83 -266 165 -5
37 -12 56 -26 63 -25 13 -35 13 -48 -2z"/>
<path d="M22569 6525 c-36 -19 -63 -78 -56 -122 12 -70 86 -133 155 -133 40 0
89 42 101 86 13 49 -4 101 -49 146 -32 33 -44 38 -81 38 -24 -1 -56 -7 -70
-15z"/>
<path d="M21310 6294 c-122 -33 -218 -116 -288 -251 -52 -100 -72 -180 -72
-285 0 -201 103 -371 273 -452 252 -121 493 -36 616 216 92 188 95 354 10 525
-95 189 -338 301 -539 247z m183 -223 c112 -29 180 -65 231 -122 57 -64 80
-130 74 -213 -6 -72 -26 -116 -77 -169 -48 -51 -95 -74 -179 -89 -58 -10 -83
-9 -150 4 -241 48 -379 207 -328 379 54 188 212 265 429 210z"/>
<path d="M20660 5243 c-41 -98 -101 -218 -152 -306 -33 -55 -38 -70 -28 -82
20 -24 37 -18 76 30 46 54 95 79 136 71 41 -8 453 -246 468 -270 36 -58 15
-208 -43 -304 -59 -98 -139 -136 -240 -113 -70 15 -408 206 -455 256 -32 35
-32 37 -26 101 l7 66 -28 -4 c-23 -2 -35 -15 -63 -68 -19 -36 -73 -129 -119
-208 -46 -79 -83 -151 -81 -160 7 -35 39 -24 98 32 87 83 89 83 350 -66 236
-134 316 -167 400 -168 186 0 320 204 320 486 l0 86 33 -6 c78 -15 115 -18
120 -9 3 5 7 80 8 167 1 125 -1 160 -12 167 -20 13 -20 13 -78 -31 -36 -27
-63 -40 -85 -40 -41 0 -440 225 -493 277 -34 35 -35 38 -29 89 7 64 1 84 -29
84 -19 0 -28 -13 -55 -77z"/>
</g>
</svg>
